<svg xmlns="http://www.w3.org/2000/svg" viewBox="0 0 714.23 714.22"><defs><style>.cls-1{fill:#eee;}.cls-2{fill:#ccc;}</style></defs><title>Recurso 1</title><g id="Capa_2" data-name="Capa 2"><g id="Capa_1-2" data-name="Capa 1"><path class="cls-1" d="M714.19,714.16v0h-695q35.09-.07,70.16,0c1.62-9.35,1.64-18.89,3-28.25a455.14,455.14,0,0,1,9-44.88,340.34,340.34,0,0,1,15.05-44.78,334.74,334.74,0,0,1,22.3-44c7.17-12.13,15.52-23.38,24.05-34.48,7.5-9.75,16.34-18.36,25.1-27a237.78,237.78,0,0,1,38.39-30.9c16.3-10.5,33.43-19.57,51.84-26,1.2-.41,2.76-.52,2.9-2.05s-1.45-1.9-2.53-2.5a158.7,158.7,0,0,1-28.29-20.63,152.15,152.15,0,0,1-24.36-27.88,142.69,142.69,0,0,1-16.8-31.9c-2.89-8-5.11-16.11-7.48-24.21-1-3.24-1.06-6.62-1.66-9.92a133.24,133.24,0,0,1-1.41-37.44,164,164,0,0,1,12.92-50.2,165.86,165.86,0,0,1,29.16-44.54A154.32,154.32,0,0,1,268,158.75,143.93,143.93,0,0,1,299.88,142c8-2.9,16.12-5.09,24.22-7.48,3.12-.91,6.39-1,9.57-1.59a134.23,134.23,0,0,1,37.79-1.43,165.65,165.65,0,0,1,50.2,12.94c12.32,5.42,23.45,12.48,34.25,20.35A126.57,126.57,0,0,1,471,178a137.63,137.63,0,0,1,15,17.34,182.61,182.61,0,0,1,15.56,25.47,162.62,162.62,0,0,1,12.87,37.75,151.9,151.9,0,0,1,2.78,45,154.56,154.56,0,0,1-5.08,28.64c-3,10.5-6.5,20.86-11.54,30.5a166.44,166.44,0,0,1-25.16,36.1c-8.38,9.1-17.82,16.8-27.61,24.16-3.23,2.42-6.93,4.21-10.43,6.26-1.27.75-3.11,1.15-3.1,2.93s2,1.73,3.19,2.15c12.25,4.19,23.74,10.07,35,16.27a248.05,248.05,0,0,1,33.22,22.12c13.42,10.48,25.43,22.4,37,34.78,6.38,6.84,12,14.45,17.6,21.94a291.69,291.69,0,0,1,31.33,52.89A355.13,355.13,0,0,1,610,630.65c4.34,14.7,7.45,29.64,10.31,44.64.94,4.92,1.28,10.11,2.05,15.1,1.23,7.91.55,16,2.6,23.77Z"/><path d="M420.57,2.13h-2.16V0C418.56,1.51,419.15,2,420.57,2.13Z"/><path class="cls-2" d="M714.19,4.22V714.16H624.94c-2.05-7.78-1.37-15.86-2.6-23.77-.77-5-1.11-10.18-2.05-15.1-2.86-15-6-29.94-10.31-44.64a355.13,355.13,0,0,0-18.35-48.37,291.69,291.69,0,0,0-31.33-52.89c-5.63-7.49-11.22-15.1-17.6-21.94-11.54-12.38-23.55-24.3-37-34.78a248.05,248.05,0,0,0-33.22-22.12c-11.27-6.2-22.76-12.08-35-16.27-1.21-.42-3.17-.3-3.19-2.15s1.83-2.18,3.1-2.93c3.5-2.05,7.2-3.84,10.43-6.26,9.79-7.36,19.23-15.06,27.61-24.16a166.44,166.44,0,0,0,25.16-36.1c5-9.64,8.51-20,11.54-30.5a154.56,154.56,0,0,0,5.08-28.64,151.9,151.9,0,0,0-2.78-45,162.62,162.62,0,0,0-12.87-37.75A182.61,182.61,0,0,0,486,195.37,137.63,137.63,0,0,0,471,178a126.57,126.57,0,0,0-15.13-13.25c-10.8-7.87-21.93-14.93-34.25-20.35a165.65,165.65,0,0,0-50.2-12.94,134.23,134.23,0,0,0-37.79,1.43c-3.18.58-6.45.68-9.57,1.59-8.1,2.39-16.24,4.58-24.22,7.48A143.93,143.93,0,0,0,268,158.75a154.32,154.32,0,0,0-27.4,23.85,165.86,165.86,0,0,0-29.16,44.54,164,164,0,0,0-12.92,50.2,133.24,133.24,0,0,0,1.41,37.44c.6,3.3.71,6.68,1.66,9.92,2.37,8.1,4.59,16.23,7.48,24.21a142.69,142.69,0,0,0,16.8,31.9,152.15,152.15,0,0,0,24.36,27.88,158.7,158.7,0,0,0,28.29,20.63c1.08.6,2.68.94,2.53,2.5s-1.7,1.64-2.9,2.05c-18.41,6.4-35.54,15.47-51.84,26a237.78,237.78,0,0,0-38.39,30.9c-8.76,8.65-17.6,17.26-25.1,27-8.53,11.1-16.88,22.35-24.05,34.48a334.74,334.74,0,0,0-22.3,44A340.34,340.34,0,0,0,101.38,641a455.14,455.14,0,0,0-9,44.88c-1.39,9.36-1.41,18.9-3,28.25q-35.08,0-70.16,0H2.2c-1.42-.12-2-.62-2.16-2.13V534.26q0-265.2,0-530.41V0H710C713.36.18,714.05.87,714.19,4.22Z"/><path class="cls-2" d="M0,711.06q0-88.39,0-176.8V712.05A9.83,9.83,0,0,1,0,711.06Z"/><path class="cls-2" d="M2.2,714.18h17l-15.94,0C2.85,714.22,2.51,714.21,2.2,714.18Z"/><path class="cls-2" d="M706.82,0c1.28,0,2.33,0,3.2,0H.07V0L4.6,0Z"/><path class="cls-2" d="M714.23,7.41V589.69q0,62.23,0,124.47h0V4.22C714.23,5.09,714.23,6.14,714.23,7.41Z"/></g></g></svg>