<?xml version="1.0" encoding="utf-8"?>
<!-- Generator: Adobe Illustrator 21.0.2, SVG Export Plug-In . SVG Version: 6.00 Build 0)  -->
<svg version="1.1" id="Layer_1" xmlns="http://www.w3.org/2000/svg" xmlns:xlink="http://www.w3.org/1999/xlink" x="0px" y="0px"
	 viewBox="0 0 90 50" style="enable-background:new 0 0 90 50;" xml:space="preserve">
<style type="text/css">
	.st0{fill:#3AB98A;}
	.st1{fill:#7CDDED;}
	.st2{fill:#77C844;}
	.st3{fill:#78D594;}
	.st4{fill:#FCEF75;}
</style>
<g>
	<path class="st0" d="M31.4,29.8c-0.7,0.4-1.3,0.8-1.9,1.2c-1.1,0.9-2,2-2.6,3.2c-0.6,1.2-1,2.6-1,4.1c0,1.3,0.3,2.6,0.8,3.8
		c0.2,0.6,0.5,1.1,0.9,1.5c0.3-0.3,0.5-0.6,0.7-1c1.3-2.1,2.2-4.6,2.6-7.6C31.1,33.3,31.3,31.6,31.4,29.8z"/>
	<path class="st0" d="M28.7,23.9c0.6,1.2,1.7,1.9,2.9,2.1c0-0.3,0-0.6,0-0.9v-6.3c-1.3,0.5-2.6,1.1-3.9,1.9
		c-0.2,0.1-0.3,0.4-0.2,0.7L28.7,23.9z"/>
</g>
<path class="st1" d="M26.7,42c-0.5-1.2-0.8-2.4-0.8-3.8c0-1.5,0.3-2.9,1-4.1c0.6-1.2,1.5-2.3,2.6-3.2c0.6-0.5,1.2-0.9,1.9-1.2
	c0.1-1.2,0.1-2.5,0.1-3.8c-1.2-0.2-2.3-0.9-2.9-2.1l-1.2-2.6c-0.1-0.2,0-0.5,0.2-0.7c1.2-0.8,2.5-1.4,3.9-1.9V1.3
	c0-0.3-0.3-0.6-0.6-0.6h-3.7c-4.9,0-8.9,4-8.9,8.9V25c0,2.3-0.1,4.2-0.2,5.8c-0.1,1.6-0.4,2.9-0.9,3.9c-0.4,1-1.1,1.7-1.9,2.2
	c-0.9,0.4-2,0.7-3.4,0.7c-0.9,0-1.8-0.1-2.7-0.3C8.5,37.2,7.7,37,7,36.7c-0.7-0.2-1.2-0.4-1.7-0.7c-0.1,0-0.2-0.1-0.2-0.1
	c-0.3-0.2-0.7,0-0.8,0.4l-2.5,9.6c-0.1,0.2,0,0.5,0.2,0.6c2.8,1.8,6.1,2.7,10,2.7c4.3,0,7.8-0.6,10.4-1.7c2.2-1,3.9-2.3,5.2-3.9
	C27.3,43.1,27,42.6,26.7,42z"/>
<path class="st2" d="M56.9,38.2C56.9,38.2,56.9,38.2,56.9,38.2c-0.6-0.1-1-0.3-1.3-0.7c0,0-0.1-0.1-0.1-0.1
	c-0.4,0.2-0.9,0.3-1.5,0.3v9.5c0.5,0.1,1.1,0.2,1.6,0.3c0.4-0.1,0.7-0.1,1.1-0.2c0,0,0,0,0,0l0,0l2.7-0.6v-5.6
	C59.5,39.6,58.4,38.4,56.9,38.2z"/>
<path class="st3" d="M54.1,47.2v-9.5c0.6,0,1.1-0.2,1.5-0.3c-0.2-0.4-0.4-1.1-0.4-2v-5.7c0-4.2-1.3-7.3-3.8-9.4
	c-2.5-2.1-6.2-3.1-10.9-3.1c-3.2,0-6.2,0.5-9,1.6V25c0,0.3,0,0.6,0,0.9c0.7,0.1,1.4,0,2.1-0.3c0.4-0.2,0.8-0.4,1.2-0.5
	c1.4-0.5,3-0.8,4.7-0.8c1.8,0,3.1,0.3,3.9,1c0.8,0.7,1.2,1.7,1.2,3.1v0.1c0,0.4-0.4,0.6-0.7,0.5c-1.4-0.5-3.2-0.8-5.2-0.8
	c-1.9,0-3.6,0.2-5.1,0.7c-0.8,0.2-1.5,0.5-2.1,0.9c-0.1,1.8-0.3,3.6-0.5,5.2c-0.4,3-1.3,5.5-2.6,7.6c-0.2,0.3-0.5,0.7-0.7,1
	c0.4,0.5,0.8,1,1.3,1.5c0.9,0.8,2,1.5,3.3,2c1.3,0.5,2.6,0.7,4.1,0.7c1.9,0,3.8-0.4,5.5-1.3c1.4-0.7,2.7-1.7,3.9-3
	c0.3-0.3,0.8-0.2,0.9,0.2c0.3,1.3,0.9,2.4,1.9,3.1c1,0.7,2.4,1,4.3,1c0.6,0,1.3,0,2-0.1c0.3,0,0.6-0.1,0.9-0.1
	C55.2,47.4,54.6,47.3,54.1,47.2z M44.6,36.9c0,0.4-0.1,0.7-0.4,1.1c-0.3,0.3-0.6,0.7-1,1c0,0,0,0,0,0c-0.5,0.3-1.1,0.6-1.8,0.8
	c-0.7,0.2-1.3,0.3-2,0.3c-1,0-1.8-0.3-2.5-0.8c-0.7-0.5-1-1.2-1-2c0-1,0.4-1.8,1.3-2.4c0.9-0.6,1.9-1,3.3-1c0.6,0,1.3,0.1,2,0.2
	c0.6,0.1,1.2,0.3,1.7,0.4c0.2,0.1,0.4,0.3,0.4,0.5V36.9z"/>
<path class="st4" d="M87.2,15.6c-0.7-1.7-1.6-3.2-2.9-4.6c-1.2-1.3-2.7-2.4-4.4-3.2c-1.7-0.8-3.5-1.2-5.5-1.2H57.6
	c-0.5,0-0.8,0.4-0.8,0.8V35c0,1-0.2,1.6-0.6,2c-0.1,0.2-0.4,0.3-0.6,0.4c0,0,0,0.1,0.1,0.1c0.3,0.3,0.7,0.6,1.3,0.7c0,0,0,0,0,0
	c1.4,0.2,2.6,1.4,2.6,2.9v5.6l-2.7,0.6l0,0c0,0,0,0,0,0c-0.4,0.1-0.7,0.1-1.1,0.2c0.5,0.1,1,0.1,1.6,0.2c1.1,0.1,2.1,0.1,3,0.1
	c1.1,0,2.1-0.2,3-0.5c0.9-0.3,1.7-0.8,2.5-1.4c0.7-0.6,1.3-1.3,1.7-2.2c0.4-0.8,0.6-1.8,0.6-2.9v-5.9h6.7c2,0,3.8-0.4,5.5-1.2
	c1.7-0.8,3.1-1.8,4.3-3.2c1.2-1.3,2.1-2.8,2.7-4.6c0.7-1.7,1-3.5,1-5.3C88.2,19,87.9,17.3,87.2,15.6z M75.9,24.2
	c-0.6,0.6-1.2,1-1.9,1H68v-8.8h5.7c0.7,0,1.4,0.3,2.1,0.9c0.7,0.6,1,1.8,1,3.5C76.8,22.4,76.5,23.5,75.9,24.2z"/>
</svg>
